<svg width="64" height="64" viewBox="0 0 64 64" fill="none" xmlns="http://www.w3.org/2000/svg">
  <title>Discovery and Strategy Icon</title>
  <desc>Icon representing discovery and strategy planning</desc>
  <path d="M32 4C17.64 4 6 15.64 6 30s11.64 26 26 26 26-11.64 26-26S46.36 4 32 4zm0 44c-9.94 0-18-8.06-18-18s8.06-18 18-18 18 8.06 18 18-8.06 18-18 18z" fill="url(#grad1)" />
  <path d="M32 14l10 18-10 6-10-6 10-18z" fill="url(#grad2)" />
  <defs>
    <linearGradient id="grad1" x1="0%" y1="0%" x2="100%" y2="100%">
      <stop offset="0%" style="stop-color:#34d399;stop-opacity:1" />
      <stop offset="100%" style="stop-color:#2dd4bf;stop-opacity:1" />
    </linearGradient>
    <linearGradient id="grad2" x1="0%" y1="0%" x2="100%" y2="100%">
      <stop offset="0%" style="stop-color:#ffffff;stop-opacity:0.5" />
      <stop offset="100%" style="stop-color:#ffffff;stop-opacity:0.2" />
    </linearGradient>
  </defs>
</svg>